<svg width="18" height="15" viewBox="0 0 18 15" fill="none" xmlns="http://www.w3.org/2000/svg">
<path d="M9.45479 0C4.73585 0 0.909576 3.35721 0.909576 7.49418C0.909576 10.8057 3.3587 13.6116 6.75389 14.6034C6.80151 14.6122 6.85012 14.6166 6.89886 14.6164C7.21549 14.6164 7.33756 14.4174 7.33756 14.2445C7.33756 14.0651 7.32993 13.5952 7.32612 12.9688C7.04345 13.0255 6.75428 13.055 6.46397 13.0569C4.81977 13.0569 4.44592 11.9639 4.44592 11.9639C4.05681 11.0994 3.49603 10.8677 3.49603 10.8677C2.75214 10.4207 3.49221 10.4077 3.54944 10.4077H3.55325C4.41159 10.4729 4.86174 11.1842 4.86174 11.1842C5.289 11.8236 5.86122 12.0031 6.37241 12.0031C6.71042 11.9973 7.0432 11.9306 7.349 11.8073C7.4253 11.3245 7.64656 10.9949 7.89071 10.8057C5.99474 10.6165 3.99959 9.97376 3.99959 7.10267C3.99959 6.28376 4.33148 5.61493 4.877 5.09291C4.78926 4.90368 4.49551 4.14023 4.96092 3.10925C5.02335 3.09648 5.08751 3.09099 5.15166 3.09294C5.46067 3.09294 6.15878 3.19408 7.31086 3.87923C8.71072 3.54426 10.1912 3.54426 11.5911 3.87923C12.7432 3.19408 13.4413 3.09294 13.7503 3.09294C13.8144 3.09099 13.8786 3.09648 13.941 3.10925C14.4064 4.14023 14.1127 4.90368 14.025 5.09291C14.5705 5.61819 14.9024 6.28702 14.9024 7.10267C14.9024 9.98028 12.9034 10.6132 10.9998 10.7992C11.305 11.0308 11.5796 11.4876 11.5796 12.1858C11.5796 13.1874 11.5682 13.9965 11.5682 14.2412C11.5682 14.4174 11.6865 14.6164 12.0031 14.6164C12.0543 14.6166 12.1055 14.6122 12.1557 14.6034C15.5547 13.6116 18 10.8025 18 7.49418C18 3.35721 14.1737 0 9.45479 0V0Z" fill="white"/>
</svg>
